<?xml version="1.0" encoding="UTF-8"?>
<svg version="1.1" xmlns="http://www.w3.org/2000/svg" width="100" height="100">
<path d="M0 0 C2.75446049 2.4431917 5.41158402 4.97920556 8.0390625 7.55859375 C8.5753125 8.0278125 9.1115625 8.49703125 9.6640625 8.98046875 C17.69865543 18.20199018 19.49032766 31.36786883 19.2890625 43.06640625 C18.26109163 57.42587427 11.44771955 68.89023947 1.0390625 78.55859375 C-10.89555887 87.7739343 -23.08080501 90.43860159 -37.9609375 89.55859375 C-51.96369238 87.24904846 -63.44266239 80.00029431 -72.10546875 68.78125 C-79.92352145 57.04594142 -82.65900148 44.38876559 -80.46484375 30.39453125 C-77.08333678 15.60760246 -69.29318022 4.42482571 -56.578125 -3.97265625 C-38.95305642 -13.86373951 -15.84461341 -13.06448995 0 0 Z " fill="#4A5A5A" transform="translate(80.9609375,10.44140625)"/>
<path d="M0 0 C2.75446049 2.4431917 5.41158402 4.97920556 8.0390625 7.55859375 C8.5753125 8.0278125 9.1115625 8.49703125 9.6640625 8.98046875 C17.69865543 18.20199018 19.49032766 31.36786883 19.2890625 43.06640625 C18.26109163 57.42587427 11.44771955 68.89023947 1.0390625 78.55859375 C-10.89555887 87.7739343 -23.08080501 90.43860159 -37.9609375 89.55859375 C-51.96369238 87.24904846 -63.44266239 80.00029431 -72.10546875 68.78125 C-79.92352145 57.04594142 -82.65900148 44.38876559 -80.46484375 30.39453125 C-77.08333678 15.60760246 -69.29318022 4.42482571 -56.578125 -3.97265625 C-38.95305642 -13.86373951 -15.84461341 -13.06448995 0 0 Z M-61.421875 19.4140625 C-67.0283125 27.2260782 -68.80044743 36.07976344 -67.9609375 45.55859375 C-66.62097073 52.36393678 -64.06929024 57.99892075 -59.9609375 63.55859375 C-59.1875 64.61433594 -59.1875 64.61433594 -58.3984375 65.69140625 C-52.32660362 73.30930895 -44.45605464 76.25723252 -34.9609375 77.55859375 C-24.37556535 78.53967702 -14.42350781 76.08907038 -5.9609375 69.55859375 C-3.21052084 67.14192604 -3.21052084 67.14192604 -0.9609375 64.55859375 C-0.2803125 63.81609375 0.4003125 63.07359375 1.1015625 62.30859375 C6.8984975 54.080686 8.83537459 45.50525561 8.0390625 35.55859375 C6.43175971 27.16771383 2.73298104 19.09838841 -3.9609375 13.55859375 C-4.6209375 13.55859375 -5.2809375 13.55859375 -5.9609375 13.55859375 C-6.4559375 12.07359375 -6.4559375 12.07359375 -6.9609375 10.55859375 C-25.60182577 -1.68698002 -47.35520186 2.61755554 -61.421875 19.4140625 Z " fill="#364443" transform="translate(80.9609375,10.44140625)"/>
<path d="" fill="#FFFFFF" transform="translate(0,0)"/>
<path d="" fill="#FFFFFF" transform="translate(0,0)"/>
<path d="" fill="#FFFFFF" transform="translate(0,0)"/>
<path d="" fill="#FFFFFF" transform="translate(0,0)"/>
<path d="" fill="#FFFFFF" transform="translate(0,0)"/>
<path d="" fill="#FFFFFF" transform="translate(0,0)"/>
<path d="" fill="#FFFFFF" transform="translate(0,0)"/>
<path d="" fill="#FFFFFF" transform="translate(0,0)"/>
<path d="" fill="#FFFFFF" transform="translate(0,0)"/>
<path d="" fill="#FFFFFF" transform="translate(0,0)"/>
<path d="" fill="#FFFFFF" transform="translate(0,0)"/>
<path d="" fill="#FFFFFF" transform="translate(0,0)"/>
<path d="" fill="#FFFFFF" transform="translate(0,0)"/>
<path d="" fill="#FFFFFF" transform="translate(0,0)"/>
<path d="" fill="#FFFFFF" transform="translate(0,0)"/>
</svg>
