<?xml version="1.0" encoding="UTF-8"?>
<svg version="1.1" xmlns="http://www.w3.org/2000/svg" width="42" height="46">
<path d="M0 0 C1.15435547 -0.01611328 2.30871094 -0.03222656 3.49804688 -0.04882812 C9.78888626 -0.05243733 14.53531405 0.20689765 20.0625 3.3125 C21.97539618 5.22539618 21.22625827 8.73474083 21.23046875 11.33984375 C21.23546135 12.39601646 21.23546135 12.39601646 21.24055481 13.473526 C21.24562655 14.96566106 21.24796306 16.4578075 21.24780273 17.94995117 C21.24998759 20.23700607 21.26813549 22.52357753 21.28710938 24.81054688 C21.29004354 26.25781084 21.29202818 27.70507711 21.29296875 29.15234375 C21.30015427 29.83884506 21.30733978 30.52534637 21.31474304 31.23265076 C21.29132369 36.08367631 21.29132369 36.08367631 19.0625 38.3125 C14.5955667 39.85874614 10.78289536 40.54276319 6.0625 40.3125 C6.0625 42.2925 6.0625 44.2725 6.0625 46.3125 C2.1025 46.3125 -1.8575 46.3125 -5.9375 46.3125 C-5.9375 44.3325 -5.9375 42.3525 -5.9375 40.3125 C-6.7625 40.374375 -7.5875 40.43625 -8.4375 40.5 C-12.52777511 40.28087812 -17.89444265 39.35555735 -20.9375 36.3125 C-21.05067284 33.96021681 -21.10166537 31.63838052 -21.10546875 29.28515625 C-21.10879715 28.58104111 -21.11212555 27.87692596 -21.11555481 27.151474 C-21.12062655 25.65933894 -21.12296306 24.1671925 -21.12280273 22.67504883 C-21.12498759 20.38799393 -21.14313549 18.10142247 -21.16210938 15.81445312 C-21.16504354 14.36718916 -21.16702818 12.91992289 -21.16796875 11.47265625 C-21.17515427 10.78615494 -21.18233978 10.09965363 -21.18974304 9.39234924 C-21.16632369 4.54132369 -21.16632369 4.54132369 -18.9375 2.3125 C-12.63298601 -0.22509908 -6.70026187 -0.01864291 0 0 Z " fill="#2D2A22" transform="translate(20.9375,-0.3125)"/>
<path d="M0 0 C1.53527344 -0.01836914 1.53527344 -0.01836914 3.1015625 -0.03710938 C4.07867188 -0.03904297 5.05578125 -0.04097656 6.0625 -0.04296875 C7.41021484 -0.04913208 7.41021484 -0.04913208 8.78515625 -0.05541992 C11 0.1875 11 0.1875 13 2.1875 C13.39987122 6.74851998 13.32902392 11.32378239 13.31567383 15.90039062 C13.31251197 18.1788709 13.33597517 20.45605521 13.36132812 22.734375 C13.36360088 24.17708169 13.36430473 25.61979188 13.36328125 27.0625 C13.36626221 28.37992188 13.36924316 29.69734375 13.37231445 31.0546875 C13.24945068 32.08851562 13.12658691 33.12234375 13 34.1875 C10 36.1875 10 36.1875 6 36.1875 C3.38462703 32.23254575 3.55735726 28.01922627 3.375 23.4375 C3.33632813 22.64472656 3.29765625 21.85195313 3.2578125 21.03515625 C3.163892 19.08630584 3.08087178 17.13693549 3 15.1875 C1.02 15.1875 -0.96 15.1875 -3 15.1875 C-3.04898437 16.36828125 -3.09796875 17.5490625 -3.1484375 18.765625 C-3.22348879 20.32293937 -3.29903561 21.88022991 -3.375 23.4375 C-3.42140625 24.60345703 -3.42140625 24.60345703 -3.46875 25.79296875 C-3.83381886 32.91181144 -3.83381886 32.91181144 -6 36.1875 C-11.875 35.3125 -11.875 35.3125 -13 34.1875 C-13.08843793 31.73919574 -13.11528752 29.31929401 -13.09765625 26.87109375 C-13.0962413 26.14003922 -13.09482635 25.40898468 -13.09336853 24.65577698 C-13.08775408 22.31214368 -13.07519922 19.96860461 -13.0625 17.625 C-13.05748686 16.03971492 -13.05292363 14.45442834 -13.04882812 12.86914062 C-13.03777997 8.9752239 -13.02050572 5.08137795 -13 1.1875 C-9.11308052 -0.75595974 -4.27485419 0.00269197 0 0 Z " fill="#5C5A52" transform="translate(21,1.8125)"/>
<path d="M0 0 C1.65 0 3.3 0 5 0 C5.33 1.32 5.66 2.64 6 4 C5.34 4 4.68 4 4 4 C4 5.32 4 6.64 4 8 C4.66 8 5.32 8 6 8 C6 9.98 6 11.96 6 14 C5.34 14 4.68 14 4 14 C4 15.32 4 16.64 4 18 C4.66 18 5.32 18 6 18 C6 19.98 6 21.96 6 24 C5.34 24 4.68 24 4 24 C4 25.32 4 26.64 4 28 C4.66 28 5.32 28 6 28 C5.67 29.32 5.34 30.64 5 32 C3.35 32 1.7 32 0 32 C0 21.44 0 10.88 0 0 Z " fill="#413D2F" transform="translate(34,4)"/>
<path d="M0 0 C1.32 0 2.64 0 4 0 C4 10.56 4 21.12 4 32 C2.35 32 0.7 32 -1 32 C-1.33 30.68 -1.66 29.36 -2 28 C-1.34 28 -0.68 28 0 28 C0 26.68 0 25.36 0 24 C-0.66 24 -1.32 24 -2 24 C-2 22.02 -2 20.04 -2 18 C-1.34 18 -0.68 18 0 18 C0 16.68 0 15.36 0 14 C-0.66 14 -1.32 14 -2 14 C-2 12.02 -2 10.04 -2 8 C-1.34 8 -0.68 8 0 8 C0 6.68 0 5.36 0 4 C-0.66 4 -1.32 4 -2 4 C-1.34 2.68 -0.68 1.36 0 0 Z " fill="#413D2F" transform="translate(4,4)"/>
<path d="M0 0 C1.32 0 2.64 0 4 0 C4.06058594 1.14339844 4.12117188 2.28679688 4.18359375 3.46484375 C4.26798428 4.95574305 4.35263302 6.44662775 4.4375 7.9375 C4.47681641 8.69224609 4.51613281 9.44699219 4.55664062 10.22460938 C4.44038024 13.91944187 4.44038024 13.91944187 6 17 C6.07179964 18.51928038 6.08392007 20.04167482 6.0625 21.5625 C6.05347656 22.38878906 6.04445313 23.21507813 6.03515625 24.06640625 C6.02355469 24.70449219 6.01195312 25.34257813 6 26 C3.36 26 0.72 26 -2 26 C-2.02689216 24.52093108 -2.04634621 23.04172517 -2.0625 21.5625 C-2.07410156 20.73878906 -2.08570312 19.91507813 -2.09765625 19.06640625 C-2 17 -2 17 -1 16 C-0.76321284 13.30764224 -0.57801975 10.63501844 -0.4375 7.9375 C-0.39431641 7.17888672 -0.35113281 6.42027344 -0.30664062 5.63867188 C-0.20026367 3.75934562 -0.09960066 1.87969756 0 0 Z " fill="#423E30" transform="translate(19,18)"/>
<path d="M0 0 C1.98 0.99 1.98 0.99 4 2 C4 12.56 4 23.12 4 34 C2.68 34.66 1.36 35.32 0 36 C0 24.12 0 12.24 0 0 Z " fill="#55534C" transform="translate(30,2)"/>
<path d="M0 0 C8.58 0 17.16 0 26 0 C26 1.32 26 2.64 26 4 C25.34 3.67 24.68 3.34 24 3 C22.1136088 2.915085 20.22421485 2.892807 18.3359375 2.90234375 C16.65371094 2.90717773 16.65371094 2.90717773 14.9375 2.91210938 C13.1740625 2.92467773 13.1740625 2.92467773 11.375 2.9375 C10.19164062 2.94201172 9.00828125 2.94652344 7.7890625 2.95117188 C4.85932493 2.96298533 1.92968728 2.97945742 -1 3 C-0.67 2.01 -0.34 1.02 0 0 Z " fill="#3E3C37" transform="translate(8,0)"/>
<path d="M0 0 C1.32 0 2.64 0 4 0 C4 3.3 4 6.6 4 10 C2.68 10 1.36 10 0 10 C0 6.7 0 3.4 0 0 Z " fill="#514F49" transform="translate(24,2)"/>
<path d="M0 0 C1.32 0 2.64 0 4 0 C4 3.3 4 6.6 4 10 C2.68 10 1.36 10 0 10 C0 6.7 0 3.4 0 0 Z " fill="#514F49" transform="translate(14,2)"/>
<path d="M0 0 C0.33 0.99 0.66 1.98 1 3 C0 4 0 4 -3.0625 4.0625 C-4.5165625 4.0315625 -4.5165625 4.0315625 -6 4 C-6 3.34 -6 2.68 -6 2 C-4.02 1.34 -2.04 0.68 0 0 Z " fill="#3F3D38" transform="translate(33,36)"/>
<path d="M0 0 C2.31 0.66 4.62 1.32 7 2 C7 2.66 7 3.32 7 4 C5.02 4 3.04 4 1 4 C0.67 2.68 0.34 1.36 0 0 Z " fill="#3F3D38" transform="translate(8,36)"/>
</svg>
